<svg width="141" height="100" viewBox="0 0 141 100" fill="none" xmlns="http://www.w3.org/2000/svg">
<path d="M0 30.8642C0 16.3147 0 9.03991 4.51996 4.51996C9.03991 0 16.3147 0 30.8642 0H54.9383C69.4878 0 76.7626 0 81.2825 4.51996C85.8025 9.03991 85.8025 16.3147 85.8025 30.8642V69.1358C85.8025 83.6853 85.8025 90.9601 81.2825 95.48C76.7626 100 69.4878 100 54.9383 100H30.8642C16.3147 100 9.03991 100 4.51996 95.48C0 90.9601 0 83.6853 0 69.1358V30.8642Z" fill="#0077FF"/>
<path d="M14.1973 72.7346C14.1973 67.8334 14.1973 65.389 15.8145 63.8643C17.4318 62.3396 20.0307 62.3457 25.2406 62.3457H62.7529C67.9566 62.3457 70.5614 62.3458 72.1787 63.8643C73.796 65.3828 73.7961 67.8334 73.7961 72.7346V76.2902C73.7961 81.1852 73.796 83.6359 72.1787 85.1544C70.5614 86.673 67.9628 86.6791 62.7529 86.6791H25.2406C20.0369 86.6791 17.4318 86.6791 15.8145 85.1544C14.1973 83.6297 14.1973 81.1852 14.1973 76.2902V72.7346Z" fill="#1BE893"/>
<path d="M14.1973 35.8024C14.1973 34.4388 15.3027 33.3333 16.6664 33.3333H58.6417C60.0054 33.3333 61.1108 34.4388 61.1108 35.8024C61.1108 37.1661 60.0054 38.2716 58.6417 38.2716H16.6664C15.3027 38.2716 14.1973 37.1661 14.1973 35.8024Z" fill="white"/>
<path d="M14.1973 48.7654C14.1973 47.4018 15.3027 46.2963 16.6664 46.2963H58.6417C60.0054 46.2963 61.1108 47.4018 61.1108 48.7654C61.1108 50.1291 60.0054 51.2346 58.6417 51.2346H16.6664C15.3027 51.2346 14.1973 50.1291 14.1973 48.7654Z" fill="white"/>
<path d="M57.0102 43.1746L48.7265 43.2426C47.3561 43.2538 46.2542 44.3739 46.2655 45.7443L46.2713 46.4541C46.2825 47.8246 47.4026 48.9264 48.7731 48.9152L57.0567 48.8472C58.4271 48.836 59.529 47.7159 59.5177 46.3455L59.5119 45.6357C59.5007 44.2652 58.3806 43.1634 57.0102 43.1746Z" fill="white"/>
<path d="M131.951 69.6358C131.951 83.9383 131.951 91.0864 127.469 95.5617C122.988 100.037 115.741 100 101.327 100H73.1606C58.7223 100 51.5001 100 47.0186 95.5617C42.5371 91.1234 42.5371 83.9691 42.5371 69.6358V59.2592C42.5371 44.9567 42.5371 37.8086 47.0186 33.3642C51.5001 28.9197 58.747 28.9198 73.1606 28.9198H101.327C115.759 28.9198 122.982 28.9197 127.463 33.3642C131.944 37.8086 131.951 44.9506 131.951 59.2592V69.6358Z" fill="#2929B2"/>
<path d="M140.259 69.6358C140.259 83.9383 140.259 91.0864 135.778 95.5617C131.296 100.037 124.08 100 109.642 100H81.4691C67.0308 100 59.8148 100 55.3272 95.5617C50.8395 91.1234 50.8457 83.9691 50.8457 69.6358V59.2592C50.8457 44.9567 50.8457 37.8086 55.3272 33.3642C59.8087 28.9197 67.0555 28.9198 81.4691 28.9198H109.636C124.074 28.9198 131.29 28.9197 135.778 33.3642C140.265 37.8086 140.259 44.9506 140.259 59.2592V69.6358Z" fill="#C279EF"/>
<path d="M115.358 43.7407H83.7594C82.1912 43.7407 80.9199 44.8462 80.9199 46.2099C80.9199 47.5735 82.1912 48.679 83.7594 48.679H115.358C116.926 48.679 118.198 47.5735 118.198 46.2099C118.198 44.8462 116.926 43.7407 115.358 43.7407Z" fill="white"/>
<path d="M65.7529 73.0247C65.7529 68.1234 65.7529 65.6791 67.3702 64.1544C68.9875 62.6297 71.5863 62.6357 76.7962 62.6357H114.309C119.512 62.6357 122.117 62.6359 123.734 64.1544C125.352 65.6729 125.352 68.1234 125.352 73.0247V76.5802C125.352 81.4753 125.352 83.926 123.734 85.4445C122.117 86.963 119.518 86.9692 114.309 86.9692H76.7962C71.5925 86.9692 68.9875 86.9692 67.3702 85.4445C65.7529 83.9198 65.7529 81.4753 65.7529 76.5802V73.0247Z" fill="#00EAFF"/>
<mask id="mask0_3801_488301" style="mask-type:alpha" maskUnits="userSpaceOnUse" x="65" y="62" width="61" height="25">
<path d="M65.7529 73.0247C65.7529 68.1235 65.7529 65.6791 67.3702 64.1544C68.9875 62.6298 71.5863 62.6358 76.7962 62.6358H114.309C119.512 62.6358 122.117 62.6359 123.734 64.1544C125.352 65.673 125.352 68.1235 125.352 73.0247V76.5803C125.352 81.4754 125.352 83.926 123.734 85.4446C122.117 86.9631 119.518 86.9692 114.309 86.9692H76.7962C71.5925 86.9692 68.9875 86.9693 67.3702 85.4446C65.7529 83.9199 65.7529 81.4754 65.7529 76.5803V73.0247Z" fill="black"/>
</mask>
<g mask="url(#mask0_3801_488301)">
<path d="M56.1849 101.407C53.4071 101.259 51.5183 100.969 50.259 100.451C47.4071 99.2654 49.4195 97.5371 53.4442 94.0865L69.6479 80.2038C72.6294 77.6482 74.117 76.3703 76.8207 76.3642C79.5244 76.358 81.0245 77.5988 84.0245 80.1482L100.339 93.8951C104.389 97.3149 106.419 99.0247 103.574 100.228C102.339 100.759 100.432 101.062 97.6602 101.241L100.376 103.531C104.432 106.951 106.457 108.66 103.617 109.864C100.778 111.068 94.6602 111.099 82.438 111.148L71.4874 111.191C59.2652 111.241 53.1479 111.265 50.2961 110.08C47.4442 108.895 49.4565 107.173 53.4874 103.722L56.1849 101.407Z" fill="#0077FF"/>
<path d="M87.4757 94.5926C84.704 94.4444 82.8091 94.1543 81.5498 93.6358C78.698 92.4506 80.7103 90.7285 84.7411 87.2717L100.939 73.389C103.92 70.8334 105.414 69.5557 108.112 69.5495C110.809 69.5433 112.315 70.784 115.315 73.3334L131.63 87.0865C135.686 90.5001 137.71 92.2099 134.871 93.4136C133.636 93.9507 131.723 94.2531 128.951 94.4259L131.667 96.7162C135.723 100.136 137.747 101.846 134.908 103.049C132.068 104.253 125.957 104.284 113.729 104.333L102.784 104.377C90.5559 104.426 84.4387 104.451 81.5931 103.265C78.7474 102.08 80.7535 100.358 84.7782 96.9074L87.4757 94.5926Z" fill="#0077FF"/>
</g>
<path d="M71.4079 50.6173C73.7943 50.6173 75.7289 48.6827 75.7289 46.2963C75.7289 43.9099 73.7943 41.9753 71.4079 41.9753C69.0215 41.9753 67.0869 43.9099 67.0869 46.2963C67.0869 48.6827 69.0215 50.6173 71.4079 50.6173Z" fill="white"/>
<path d="M14.1973 22.2222C14.1973 20.8586 15.3027 19.7531 16.6664 19.7531H26.5429C27.9066 19.7531 29.0121 20.8586 29.0121 22.2222C29.0121 23.5859 27.9066 24.6914 26.5429 24.6914H16.6664C15.3027 24.6914 14.1973 23.5859 14.1973 22.2222Z" fill="white"/>
<path d="M34.5674 22.2222C34.5674 20.8586 35.6729 19.7531 37.0365 19.7531H69.1353C70.499 19.7531 71.6044 20.8586 71.6044 22.2222C71.6044 23.5859 70.499 24.6914 69.1353 24.6914H37.0365C35.6729 24.6914 34.5674 23.5859 34.5674 22.2222Z" fill="white"/>
</svg>
