<svg width="160" height="94" viewBox="0 0 160 94" fill="none" xmlns="http://www.w3.org/2000/svg">
<path d="M158.124 45.5105C158.124 70.6453 137.572 91.021 112.219 91.021C98.8694 91.021 86.8503 85.3712 78.4623 76.3518C81.0451 72.7953 83.0728 68.8419 84.451 64.6209C87.2362 56.0905 87.2256 46.9049 84.4209 38.3808C82.249 31.7803 78.4882 25.8389 73.5013 21.0507C81.6538 8.39311 95.948 0 112.219 0C137.572 0 158.124 20.3758 158.124 45.5105Z" fill="#0077FF"/>
<path d="M76.1163 73.6219C69.9767 65.8826 66.3145 56.1206 66.3145 45.5105C66.3145 37.7785 68.2594 30.4968 71.6907 24.1201C72.3405 24.772 72.9684 25.448 73.573 26.1471C78.6353 32.0007 81.8332 39.2111 82.7622 46.8665C83.6912 54.5219 82.3096 62.2786 78.7921 69.1555C77.9983 70.7076 77.1037 72.1992 76.1163 73.6219Z" fill="#0077FF"/>
<mask id="mask0_3816_490471" style="mask-type:alpha" maskUnits="userSpaceOnUse" x="66" y="0" width="93" height="92">
<path d="M158.115 45.5105C158.115 70.6453 137.562 91.0211 112.21 91.0211C98.8622 91.0211 86.8452 85.3734 78.4574 76.357C81.042 72.7992 83.071 68.844 84.4499 64.6209C87.2351 56.0905 87.2245 46.9049 84.4197 38.3808C82.2471 31.7779 78.4843 25.8346 73.4948 21.0456C81.6479 8.39085 95.9404 0 112.21 0C137.562 0 158.115 20.3758 158.115 45.5105Z" fill="black"/>
<path d="M76.1111 73.6277C77.1001 72.2032 77.9961 70.7097 78.791 69.1555C82.3084 62.2786 83.6901 54.5219 82.7611 46.8665C81.8321 39.2111 78.6342 32.0007 73.5718 26.1471C72.9655 25.446 72.3357 24.7681 71.6839 24.1144C68.2508 30.4925 66.3047 37.7762 66.3047 45.5105C66.3047 56.1232 69.9687 65.8875 76.1111 73.6277Z" fill="black"/>
</mask>
<g mask="url(#mask0_3816_490471)">
<path d="M100.551 16.0702C93.32 18.0996 87.8289 26.4353 95.1561 31.1213C87.7674 56.5463 63.6069 39.8838 72.4453 74.5763C75.3445 85.8995 95.4637 70.0819 105.831 73.3917C114.019 76.24 116.786 72.9911 122.638 68.1656C128.023 64.7425 144.698 85.5859 150.374 82.7028C157.033 79.3756 161.593 77.4768 144.505 58.7935C141.404 55.414 136.651 43.7684 135.456 39.3611C133.04 30.3897 134.068 25.8778 126.213 22.6202C119.817 19.9636 112.534 12.7255 100.551 16.0702Z" fill="#212121"/>
<path d="M139.84 61.903C133.19 61.241 127.207 63.854 122.937 62.774C120.582 62.1555 117.384 56.5027 119.422 48.1584C116.084 50.1095 110.69 58.9764 107.044 60.0216C107.044 62.6347 106.165 66.1709 100.358 64.4986C81.6003 59.1331 81.9078 74.6894 82.7073 83.6609C84.1745 100.724 133.392 87.3628 142.88 80.2379C152.369 73.113 151.666 63.0875 139.84 61.903Z" fill="#FFA9A9"/>
<path d="M106.691 55.9713C106.961 57.2958 107.09 58.6444 107.078 59.9954C107.008 61.8768 109.591 61.6591 111.629 60.5355C114.924 58.7325 117.085 53.5673 116.347 52.766C115.609 51.9646 106.691 55.9713 106.691 55.9713Z" fill="#FF8481"/>
<path d="M121.321 49.0991C124.669 46.7387 127.779 43.6553 123.131 42.4533C122.592 42.2988 122.123 41.9651 121.803 41.5082C121.483 41.0514 121.332 40.4993 121.374 39.9447C121.603 36.1036 121.075 30.2939 116.322 28.2122C111.851 26.2698 106.755 28.5518 102.731 34.675C97.2663 43.0019 96.2296 56.4505 108.723 56.8424C113.766 56.9905 117.192 54.7868 121.321 49.0991Z" fill="#FFA9A9"/>
<path d="M119.95 36.0774C119.22 34.5532 116.145 31.4959 115.249 33.4644C114.863 34.5183 115.68 35.0844 116.471 35.5635C117.276 36.0533 118.126 36.4674 119.01 36.8003C119.695 37.1139 120.169 36.5739 119.95 36.0774Z" fill="#212121"/>
<path d="M105.62 33.3163C106.806 33.9783 110.655 33.8303 110.382 32.2624C110.215 31.7311 109.864 30.9645 108.133 31.3217C105.945 31.7572 105.005 32.8895 105.62 33.3163Z" fill="#212121"/>
<path d="M110.19 42.2181C110.796 41.7477 109.311 41.5126 109.373 40.5893C109.54 38.673 111.323 37.8891 110.981 37.6365C110.638 37.3839 108.644 39.2828 108.178 40.5196C107.932 41.1729 109.276 42.9062 110.19 42.2181Z" fill="#FF8481"/>
<path d="M114.511 40.8594C114.385 40.8332 114.266 40.7797 114.163 40.7028C114.06 40.6258 113.975 40.5274 113.915 40.4143C113.854 40.3012 113.82 40.1763 113.814 40.0484C113.807 39.9206 113.83 39.793 113.879 39.6747C114.008 39.2922 114.272 38.9688 114.622 38.7639C114.972 38.5591 115.385 38.4866 115.785 38.5599C116.594 38.7341 116.664 39.6312 116.532 40.3019C116.516 40.4214 116.474 40.5361 116.411 40.639C116.347 40.7418 116.263 40.8305 116.163 40.8993C116.063 40.968 115.949 41.0154 115.83 41.0385C115.711 41.0617 115.588 41.06 115.469 41.0335L114.511 40.8594Z" fill="#212121"/>
<path d="M105.989 39.1085C105.863 39.0878 105.742 39.0398 105.636 38.9679C105.53 38.8959 105.441 38.8018 105.376 38.6922C105.311 38.5826 105.27 38.4601 105.258 38.3334C105.246 38.2067 105.261 38.0788 105.304 37.9587C105.415 37.572 105.662 37.2378 106.001 37.017C106.34 36.7963 106.747 36.7038 107.149 36.7567C107.966 36.8874 108.028 37.7845 108.028 38.4988C108.016 38.6176 107.98 38.733 107.922 38.8374C107.863 38.9419 107.784 39.0332 107.688 39.1059C107.592 39.1786 107.483 39.231 107.366 39.2599C107.249 39.2889 107.127 39.2936 107.009 39.274L105.989 39.1085Z" fill="#212121"/>
<path d="M106.263 43.0107C109.171 43.4898 112.861 43.8295 113.739 44.7528C114.969 46.0941 110.928 50.5885 106.412 49.0555C102.52 47.7577 103.372 42.5404 106.263 43.0107Z" fill="white"/>
<path d="M139.612 60.9275C133.91 60.8491 128.92 62.8786 124.913 62.9483C124.913 62.9483 116.857 76.3444 105.954 77.1371C95.0509 77.9297 102.018 66.8504 103.318 64.847C80.5985 55.1352 71.2418 71.3971 72.6299 80.3163C77.0227 108.581 136.915 93.9041 146.429 86.7792C155.944 79.6543 155.391 61.1278 139.612 60.9275Z" fill="#5BF1FF"/>
<path d="M152.448 63.5175C152.553 68.7436 155.602 72.4019 155.962 75.7118C155.848 75.9208 145.288 87.6795 144.128 88.8466C141.835 75.9382 138.619 63.9356 136.748 58.9098C134.49 52.8127 133.717 51.5324 134.49 50.8704C136.581 49.4506 139.472 61.0961 141.027 54.1367C141.027 54.1367 141.624 49.7207 141.686 46.2976C141.747 42.8745 142.67 40.2005 143.671 40.0872C145.78 40.0872 144.075 51.933 144.954 52.0288C145.832 52.1246 146.447 38.3103 148.784 38.0926C149.549 38.0142 149.979 38.7458 149.918 40.0611V40.0001C149.918 40.0001 151.482 37.9619 152.088 40.3833C152.501 42.0121 151.912 47.1511 151.508 50.1474C151.505 50.2033 151.521 50.2586 151.555 50.3039C151.588 50.3492 151.636 50.3817 151.691 50.396C151.745 50.4103 151.803 50.4055 151.855 50.3825C151.906 50.3594 151.948 50.3194 151.974 50.2693C152.914 47.9089 154.46 44.451 155.022 44.4423C156.472 44.4423 155.207 50.6439 154.258 54.8074C153.871 56.7062 152.413 61.6187 152.448 63.5175Z" fill="#FFA9A9"/>
</g>
<path d="M19.4332 82.1882C13.3159 77.4266 8.76013 70.9735 6.34196 63.6451C3.11112 53.8167 3.945 43.119 8.66064 33.8994C13.3763 24.6798 21.5885 17.6914 31.4953 14.4676C38.8876 12.0711 46.8306 11.9016 54.3201 13.9805C61.8095 16.0595 68.5089 20.2935 73.5713 26.1471C78.6336 32.0007 81.8315 39.2112 82.7605 46.8666C83.6895 54.522 82.3079 62.2786 78.7905 69.1556C75.273 76.0326 69.7777 81.7211 62.9993 85.5018C56.221 89.2825 48.4641 90.9857 40.7094 90.3958C32.9547 89.806 25.5506 86.9497 19.4332 82.1882Z" fill="#FF52B9"/>
<mask id="mask1_3816_490471" style="mask-type:alpha" maskUnits="userSpaceOnUse" x="4" y="12" width="80" height="79">
<path d="M43.7273 90.4958C65.4437 90.4958 83.0482 73.0425 83.0482 51.5127C83.0482 29.9829 65.4437 12.5296 43.7273 12.5296C22.0109 12.5296 4.40625 29.9829 4.40625 51.5127C4.40625 73.0425 22.0109 90.4958 43.7273 90.4958Z" fill="black"/>
</mask>
<g mask="url(#mask1_3816_490471)">
<path d="M45.7644 25.4684C49.3753 28.6215 49.0678 32.4365 53.6715 34.8927C57.9501 37.1574 57.5108 43.2981 55.5077 48.559C52.7138 55.8581 46.4145 60.6138 42.6542 59.8299C38.2614 58.9589 20.0224 57.7221 21.8059 44.0211C22.2276 40.8157 23.6948 39.3002 23.8881 37.053C24.1517 34.2309 24.0638 29.8235 30.8024 28.4212C35.4149 27.5327 40.8093 21.1133 45.7644 25.4684Z" fill="#212121"/>
<path d="M52.2038 62.9221C52.2038 62.9221 51.1056 73.0085 58.5734 71.2404C71.2599 68.2354 78.0601 70.5871 81.917 80.2553C86.0901 90.7075 31.5312 99.6093 19.7935 95.3762C8.05591 91.143 6.56235 76.6842 19.7935 71.5365C27.7006 68.4705 34.6413 71.9981 37.3648 70.3083C40.8791 68.0959 35.2914 60.013 35.2914 60.013L52.2038 62.9221Z" fill="#FFA9A9"/>
<path d="M52.6339 67.8868C51.9838 70.1079 41.766 69.3328 40.334 62.0946C40.334 61.9117 40.4483 61.7636 40.5186 61.6155L52.2474 62.9221C52.0857 64.5867 52.2164 66.2665 52.6339 67.8868Z" fill="#FF8481"/>
<path d="M37.1025 34.0741C41.5568 30.9124 46.1693 33.0986 52.4861 40.1712C59.462 48.0104 62.8444 58.4626 52.2049 62.9483C44.6669 66.1449 35.4508 60.0826 35.4508 60.0826C35.4508 60.0826 28.9406 57.9486 31.1985 54.6126C32.7185 52.3567 35.6528 54.2381 34.6512 51.0241C33.6497 47.81 31.5939 37.985 37.1025 34.0741Z" fill="#FFA9A9"/>
<path d="M54.7261 45.676C57.599 49.9527 54.2869 55.9714 46.2128 53.5151C41.0205 51.9299 42.1099 50.2054 46.2655 48.3762C52.1519 45.7719 53.7772 44.2824 54.7261 45.676Z" fill="white"/>
<path d="M35.0109 41.8262C35.3448 40.0319 37.55 36.0078 38.8766 37.8892C39.5004 38.917 38.8766 39.7183 38.2177 40.4326C37.5743 41.1333 36.8654 41.772 36.1003 42.34C35.4941 42.8365 34.9231 42.4097 35.0109 41.8262Z" fill="#212121"/>
<path d="M48.5398 36.0949C47.2747 36.9659 43.2684 37.1401 43.3914 35.3632C43.5232 34.7535 44.6126 34.4922 45.5703 34.3964C48.3026 34.2832 49.1812 35.5635 48.5398 36.0949Z" fill="#212121"/>
<path d="M45.9847 44.7441C45.273 44.3521 46.8018 43.8731 46.5733 42.9237C46.0813 40.9639 44.1045 40.4412 44.4208 40.1189C44.7371 39.7966 47.1093 41.4603 47.7946 42.6623C48.1548 43.2982 47.0477 45.3189 45.9847 44.7441Z" fill="#FF8481"/>
<path d="M40.7909 44.6047C40.9224 44.5644 41.0425 44.4941 41.1415 44.3994C41.2405 44.3046 41.3157 44.1881 41.361 44.0593C41.4063 43.9305 41.4205 43.793 41.4023 43.6577C41.3842 43.5225 41.3343 43.3933 41.2566 43.2807C41.0664 42.9005 40.7427 42.6023 40.3464 42.4419C39.95 42.2815 39.5084 42.27 39.1041 42.4097C38.2871 42.7233 38.3924 43.6553 38.6121 44.3782C38.6432 44.5018 38.7013 44.6172 38.7823 44.7161C38.8633 44.815 38.9651 44.8952 39.0807 44.9509C39.1964 45.0065 39.3229 45.0363 39.4514 45.0382C39.5799 45.0401 39.7073 45.014 39.8245 44.9618L40.7909 44.6047Z" fill="#212121"/>
<path d="M49.639 41.0944C49.7723 41.0594 49.8953 40.9939 49.9983 40.903C50.1013 40.8121 50.1813 40.6985 50.2318 40.5713C50.2823 40.4441 50.3018 40.3068 50.2889 40.1707C50.2759 40.0346 50.2309 39.9035 50.1574 39.7879C49.9834 39.4034 49.6749 39.0945 49.2888 38.9183C48.9027 38.7422 48.4653 38.7107 48.0576 38.8298C47.2229 39.0998 47.2844 40.0404 47.4689 40.7721C47.4999 40.8942 47.556 41.0086 47.6336 41.1082C47.7113 41.2078 47.8089 41.2904 47.9202 41.3509C48.0315 41.4114 48.1542 41.4485 48.2807 41.4598C48.4071 41.4711 48.5346 41.4564 48.6551 41.4166L49.639 41.0944Z" fill="#212121"/>
<path d="M19.749 71.2663C26.2152 68.7578 32.1104 70.9267 35.4841 70.7786C35.4841 70.7786 43.6284 82.5112 53.8286 80.9085C64.0287 79.3059 57.5625 71.397 57.5625 71.397H57.6415C71.7952 67.1203 78.0506 70.6044 81.9075 80.2727C86.0806 90.7249 46.7649 110.253 24.256 101.578C3.12653 93.4076 6.46508 76.414 19.749 71.2663Z" fill="#0077FF"/>
</g>
</svg>
